<?xml version="1.0" standalone="no"?>
<!DOCTYPE svg PUBLIC "-//W3C//DTD SVG 20010904//EN"
 "http://www.w3.org/TR/2001/REC-SVG-20010904/DTD/svg10.dtd">
<svg version="1.0" xmlns="http://www.w3.org/2000/svg"
 width="800.000000pt" height="800.000000pt" viewBox="0 0 800.000000 800.000000"
 preserveAspectRatio="xMidYMid meet">
<metadata>
Created by potrace 1.15, written by Peter Selinger 2001-2017
</metadata>
<g transform="translate(0.000000,800.000000) scale(0.100000,-0.100000)"
fill="#000000" stroke="none">
<path d="M1850 7292 c-22 -18 -25 -27 -22 -83 3 -89 51 -500 137 -1189 41
-327 75 -599 75 -605 0 -6 43 -10 118 -10 100 0 124 -3 166 -23 27 -12 51 -20
54 -17 5 4 -162 1445 -174 1507 -11 57 70 97 96 48 5 -9 53 -386 106 -836 91
-774 98 -820 120 -843 l23 -24 59 26 c80 34 169 51 245 45 l62 -5 50 86 c54
91 175 223 258 280 31 21 47 39 47 53 0 26 -228 1465 -236 1492 -3 10 -26 27
-50 38 -39 17 -103 22 -477 43 -237 14 -477 27 -532 31 -91 6 -102 5 -125 -14z
m945 -436 c113 -67 155 -208 96 -324 -23 -45 -65 -83 -123 -113 -47 -24 -56
-20 -34 13 28 43 56 140 56 193 0 96 -42 177 -124 237 l-41 31 63 -6 c42 -3
77 -14 107 -31z m99 -788 c55 -16 138 -99 154 -154 37 -124 -14 -240 -130
-298 -28 -14 -53 -25 -54 -23 -2 1 11 31 28 65 25 49 32 80 36 140 6 103 -19
162 -95 232 l-55 50 38 0 c20 0 55 -5 78 -12z"/>
<path d="M1575 7173 c-81 -54 -181 -152 -210 -206 -19 -36 -19 -40 -2 -209 16
-161 19 -174 44 -200 29 -31 79 -50 202 -76 l83 -18 -64 -52 c-35 -29 -80 -74
-100 -100 -70 -93 -67 -81 -52 -242 20 -208 19 -206 65 -240 37 -27 71 -37
229 -71 l52 -11 -43 -26 c-66 -38 -152 -106 -188 -148 l-33 -37 53 -17 c81
-25 149 -63 218 -121 34 -28 64 -49 67 -47 3 4 -203 1710 -222 1831 -3 20 -11
37 -17 37 -7 0 -44 -21 -82 -47z"/>
<path d="M4058 5939 c-15 -8 -18 -25 -18 -112 0 -56 -3 -125 -6 -153 l-6 -50
-57 20 c-47 17 -81 21 -206 21 -130 0 -160 -3 -225 -23 -201 -63 -371 -197
-459 -362 l-32 -59 23 -12 c12 -7 46 -35 76 -63 l53 -50 47 19 c80 31 175 54
227 54 108 2 237 -51 334 -136 l53 -46 76 27 c148 51 258 45 385 -22 38 -19
90 -55 117 -79 26 -23 57 -43 69 -43 18 0 21 6 21 40 0 119 -60 295 -145 421
l-52 77 47 6 c58 8 137 47 175 86 l29 30 -29 30 c-83 87 -210 131 -325 113
-38 -6 -83 -18 -99 -26 -17 -9 -31 -13 -31 -10 0 3 14 48 30 100 31 97 39 180
18 201 -15 15 -66 15 -90 1z"/>
<path d="M1545 5348 c-8 -25 -314 -1782 -311 -1785 2 -2 37 15 78 37 119 64
207 83 378 83 129 0 155 -3 233 -26 233 -71 377 -199 377 -334 0 -90 -68 -153
-165 -153 -61 0 -76 9 -170 100 -104 100 -142 115 -290 115 -95 0 -116 -3
-153 -23 -54 -29 -82 -74 -82 -131 0 -35 6 -49 33 -76 39 -39 116 -64 382
-124 119 -27 204 -52 252 -75 187 -89 282 -264 253 -468 -29 -201 -174 -346
-405 -405 -106 -27 -382 -24 -489 5 -222 61 -377 197 -393 347 -13 115 79 202
193 181 37 -7 92 -56 170 -151 22 -28 63 -62 91 -77 108 -59 282 -58 378 3 91
58 111 175 40 238 -37 33 -54 38 -345 111 -245 62 -328 98 -410 176 -41 39
-61 52 -64 43 -15 -43 -230 -1297 -234 -1365 -10 -176 61 -279 228 -332 35
-12 4533 -835 4627 -848 101 -13 224 30 302 106 88 85 81 57 290 1245 104 594
188 1081 187 1083 -2 2 -27 -19 -55 -47 -28 -27 -79 -63 -114 -80 -111 -54
-157 -61 -418 -61 l-238 0 -3 -233 -3 -234 -28 -41 c-15 -23 -45 -51 -67 -62
-72 -37 -181 -20 -232 37 -48 53 -48 52 -48 720 0 429 4 641 11 668 16 57 46
95 93 116 37 17 71 19 397 19 322 0 363 -2 433 -20 176 -45 282 -143 340 -314
4 -10 9 -17 11 -14 3 3 48 247 100 544 73 413 92 540 82 546 -34 24 -207 -21
-305 -78 l-43 -25 -21 28 c-43 57 -139 140 -195 169 -50 25 -69 29 -138 28
-90 -1 -159 -24 -257 -87 l-56 -35 -37 54 c-47 69 -121 135 -183 166 -38 18
-63 23 -127 22 -92 0 -158 -22 -252 -83 l-60 -38 -26 42 c-40 62 -139 152
-199 180 -96 45 -221 31 -359 -41 l-66 -35 -84 84 c-100 99 -156 130 -251 135
-78 5 -145 -14 -231 -64 -32 -19 -61 -34 -63 -34 -3 0 -40 36 -82 80 -58 59
-95 87 -146 111 -62 29 -74 31 -146 27 -65 -4 -92 -11 -162 -45 -45 -22 -94
-49 -107 -60 l-25 -20 -41 56 c-157 212 -335 247 -553 110 -36 -22 -68 -36
-71 -32 -4 4 -26 34 -50 65 -49 65 -106 115 -171 149 -89 46 -245 25 -375 -50
l-50 -29 -82 83 c-102 103 -214 164 -228 123z m1198 -1680 c22 -7 54 -26 71
-43 18 -16 159 -237 315 -490 156 -253 290 -467 298 -475 11 -12 13 58 13 436
0 447 0 450 23 494 31 64 90 93 174 88 102 -6 157 -62 168 -171 3 -34 5 -336
3 -672 l-3 -610 -24 -48 c-36 -73 -83 -100 -186 -105 -71 -4 -90 -1 -129 17
-52 26 -36 2 -407 589 l-254 402 -5 -447 c-5 -429 -6 -449 -26 -483 -64 -109
-261 -106 -318 5 -20 39 -21 56 -24 680 -3 696 -1 723 49 780 51 58 167 81
262 53z m1962 -7 c49 -22 68 -43 94 -101 10 -25 117 -317 237 -650 199 -551
218 -611 219 -670 0 -77 -24 -119 -85 -150 -77 -39 -194 -17 -234 45 -9 14
-35 76 -56 138 -21 62 -42 120 -45 130 -7 16 -27 17 -278 15 l-270 -3 -49
-135 c-64 -176 -96 -210 -198 -210 -62 0 -106 18 -145 59 -28 30 -30 37 -29
109 1 75 6 90 238 701 131 344 243 636 251 650 17 33 53 67 85 80 14 5 70 10
125 10 77 0 109 -4 140 -18z"/>
<path d="M4556 3230 c-11 -28 -176 -524 -176 -532 0 -5 81 -8 180 -8 99 0 180
3 180 8 -1 28 -179 544 -184 532z"/>
<path d="M960 5330 c-24 -24 -26 -72 -4 -95 9 -8 31 -22 50 -30 26 -11 34 -20
34 -39 0 -28 -22 -38 -75 -34 -43 4 -40 -24 3 -33 46 -9 82 2 105 33 28 37 13
76 -44 108 -59 35 -61 65 -4 65 23 0 44 6 49 14 21 34 -81 44 -114 11z"/>
<path d="M1126 5283 c-4 -38 -9 -94 -12 -125 -5 -53 -3 -58 15 -58 17 0 20 9
27 83 l7 82 27 -80 c37 -111 53 -109 96 10 l33 90 0 -92 c1 -86 2 -93 21 -93
18 0 20 7 20 58 0 31 -3 87 -7 125 -5 61 -8 67 -28 67 -19 0 -27 -12 -50 -77
-15 -43 -31 -81 -34 -85 -4 -4 -19 31 -35 77 -25 73 -32 85 -52 85 -20 0 -23
-6 -28 -67z"/>
<path d="M5700 3155 l0 -207 193 4 c173 3 196 6 233 25 81 43 122 123 110 212
-9 68 -41 110 -105 139 -52 24 -69 26 -243 30 l-188 5 0 -208z"/>
</g>
</svg>
